<?xml version="1.0" standalone="no"?>
<!DOCTYPE svg PUBLIC "-//W3C//DTD SVG 20010904//EN"
 "http://www.w3.org/TR/2001/REC-SVG-20010904/DTD/svg10.dtd">
<svg version="1.0" xmlns="http://www.w3.org/2000/svg"
 width="120.000000pt" height="120.000000pt" viewBox="0 0 120.000000 120.000000"
 preserveAspectRatio="xMidYMid meet">
<metadata>
Created by potrace 1.14, written by Peter Selinger 2001-2017
</metadata>
<g transform="translate(0.000000,120.000000) scale(0.100000,-0.100000)"
fill="#000000" stroke="none">
<path d="M568 1185 c-1 -1 -25 -6 -52 -9 -27 -4 -56 -11 -65 -16 -9 -4 -19 -8
-24 -9 -32 -2 -131 -66 -183 -118 -88 -88 -169 -282 -156 -378 2 -16 5 -46 7
-65 2 -19 4 -37 5 -40 2 -3 1 -9 0 -15 -9 -42 -10 -58 -3 -68 4 -7 8 -18 9
-24 6 -39 166 -317 212 -368 68 -75 123 -82 154 -18 9 19 21 27 42 28 36 1 66
37 61 73 -1 15 -17 51 -34 80 -17 29 -31 55 -31 57 0 14 -175 294 -195 312
-39 35 -113 13 -115 -34 0 -6 -8 -10 -17 -8 -10 2 -24 4 -30 4 -15 1 -17 47
-3 56 6 4 10 12 8 18 -4 21 12 110 29 162 34 105 69 145 168 194 79 38 150 53
260 52 129 -2 254 -45 328 -115 46 -43 110 -227 101 -289 -1 -9 2 -17 7 -17 5
0 9 -13 9 -30 0 -16 -4 -30 -9 -30 -5 0 -16 -3 -25 -6 -10 -4 -19 3 -27 19
-12 27 -29 37 -67 42 -33 5 -67 -36 -153 -181 -126 -212 -158 -277 -152 -308
5 -26 40 -59 59 -55 25 4 44 -3 44 -16 0 -8 9 -24 19 -34 30 -30 77 -18 123
32 21 23 38 45 38 49 0 4 6 13 13 20 18 18 105 168 146 251 33 67 48 141 31
152 -5 3 -6 16 -1 28 4 12 6 28 4 35 -3 7 -1 18 5 25 14 17 5 102 -18 178 -30
102 -76 176 -150 248 -46 45 -151 107 -195 115 -11 2 -31 7 -45 10 -31 7 -127
16 -132 11z"/>
</g>
</svg>
